<svg viewbox="0 0 1280 1280" fill="none" xmlns="http://www.w3.org/2000/svg"><circle cx="640" cy="640" r="640" fill="#000"/><path d="M473.5 411.6c-35.6 4.44-52 56.83-83.5 75.47-10.17 2-37.86-13.49-69-31.5-41.5-24-69.5-21-69.5-21 .25-.44 31.78 5.49 45 17.5 24.53 22.32 39.24 39.63 51 54 9 11 18 9 18 9-19 13-52.5-23-69-38.5-22.4-26-103.5-34.5-103.5-34.5 14.59 2.55 39.79 4.82 63.5 19.5 28.82 15.35 38.51 60.5 58 75 19.49 14.5 24.73 10.62 25 10.5-29.5 15-74.53-48-83-60-19.2-27.2-108.5-38.5-108.5-38.5 73.91 13.12 84.2 34.9 101 72.5 16.8 37.61 52.63 48.43 68.5 49.5C228 666 207.5 669 195.39 698.07 168 888.9 383 928.4 424.89 875.57c111.38-97.97 129.7-276.46 93.11-358.5-81.52 103.86-48.03 194.99 8 252.5 35 35.93 59.5 48.93 114 63 135.79 35.07 155 36.57 266.35 55.48 111.35 18.9 157.15 32.95 195.5 5 95.37-69.5 38.15-143.05 13-174.82C1071.63 663.63 1012 618 963.5 583.57c-36.25-25.72-81.5-34.53-105-96.5-17.06-44.97-56.39-76-57-75.46-27.06-24.13-45.67-25.63-82-17.35 0-.4 18-29.69 0-62.19-22.43-40.5-118.88-76.8-116-77.9 60.5-23.17 57.17 66.8 63 90.5 8.25 27.45 3.23 41.57-23 71.94 0 0-14.5-45.5-31.5-62s-94-84.54-94-84.54c-16.38 39.49 3.3 171.39 67.5 164.5 18 58.5-42.5 49.5 14 87.5 21.5 14.46 41.97 18.08 59.5 23 17.53 4.93 53.5 26.08 53.5 50 0 23.93-21.27 35.93-38.88 35.93C656 631 638 619.57 638 595.07s35.62-45.24 35.62-45.24S823.84 406 896.5 337.57c-52.8-4-225 91-225 91" stroke="#fff" stroke-width="10"/><path d="M724 509.5c-62.7-2.25-64.51-67.99-56-90.5 110.07-63.49 231.54-104.82 252-90.56 0 0-15.93 18.15-19.5 21.56-37.62 35.86-67 61.5-67 61.5l-109.5 98z" fill="url(#paint0_linear)"/><defs><linearGradient id="paint0_linear" x1="886.54" y1="339" x2="690.67" y2="473.49" gradientUnits="userSpaceOnUse"><stop stop-color="#E87D7D"/><stop offset=".15" stop-color="#E8A97D"/><stop offset=".3" stop-color="#E8D77D"/><stop offset=".44" stop-color="#86E87D"/><stop offset=".59" stop-color="#7DD5E8"/><stop offset=".73" stop-color="#7D88E8"/><stop offset="1" stop-color="#E87DE4"/></linearGradient></defs></svg>
